#N canvas 0 28 1440 900 12;
#X obj 65 224 cnv 19 130 100 empty empty Clock\ Enabler 20 12 0 12 #faff00 #404040 0;
#X obj 98 294 bng 15 250 50 0 empty empty Pulse 17 7 0 10 #faff00 #ff0400 #000000;
#X obj 98 250 tgl 15 0 empty empty EN 17 7 0 10 #00ff04 #000000 #000000 0 1;
#X obj 65 710 cnv 19 400 450 empty empty Relay\ Simulation 145 24 0 12 #c6ffc7 #000000 0;
#X obj 124 953 sqrt~;
#X obj 124 999 -~ 0.25;
#X obj 124 1022 cos~;
#X obj 124 879 bng 19 250 50 0 empty empty empty 0 -10 0 12 #fcfcfc #000000 #000000;
#X obj 221 1093 output~;
#X obj 124 929 line~;
#X obj 124 1047 lop~ 1000;
#X obj 202 1022 cos~;
#X obj 202 879 bng 19 250 50 0 empty empty empty 0 -10 0 12 #fcfcfc #000000 #000000;
#X obj 202 929 line~;
#X obj 202 1047 lop~ 1000;
#X obj 280 953 sqrt~;
#X obj 280 999 -~ 0.25;
#X obj 280 1022 cos~;
#X obj 280 879 bng 19 250 50 0 empty empty empty 0 -10 0 12 #fcfcfc #000000 #000000;
#X obj 280 929 line~;
#X obj 280 1047 lop~ 1000;
#X obj 281 976 *~ 20;
#X obj 358 999 -~ 0.25;
#X obj 358 1022 cos~;
#X obj 358 879 bng 19 250 50 0 empty empty empty 0 -10 0 12 #fcfcfc #000000 #000000;
#X obj 358 929 line~;
#X obj 358 1047 lop~ 1000;
#X obj 359 976 *~ 20;
#X obj 358 953 pow~ 4;
#X msg 358 905 0 \, 1 10;
#X msg 280 905 0 \, 1 12;
#X obj 125 976 *~ 18;
#X obj 203 976 *~ 18;
#X msg 124 905 0 \, 1 24;
#X obj 122 781 tgl 19 0 empty empty empty 0 -10 0 12 #fcfcfc #000000 #000000 0 1;
#X obj 122 805 select 1 0;
#X obj 148 781 tgl 19 0 empty empty empty 0 -10 0 12 #fcfcfc #000000 #000000 0 1;
#X obj 122 827 select 1 0;
#X obj 201 781 tgl 19 0 empty empty empty 0 -10 0 12 #fcfcfc #000000 #000000 0 1;
#X obj 201 805 select 1 0;
#X obj 174 781 tgl 19 0 empty empty empty 0 -10 0 12 #fcfcfc #000000 #000000 0 1;
#X obj 201 827 select 1 0;
#X obj 281 781 tgl 19 0 empty empty empty 0 -10 0 12 #fcfcfc #000000 #000000 0 1;
#X obj 281 805 select 1 0;
#X obj 307 781 tgl 19 0 empty empty empty 0 -10 0 12 #fcfcfc #000000 #000000 0 1;
#X obj 281 827 select 1 0;
#X obj 360 781 tgl 19 0 empty empty empty 0 -10 0 12 #fcfcfc #000000 #000000 0 1;
#X obj 360 805 select 1 0;
#X obj 334 781 tgl 19 0 empty empty empty 0 -10 0 12 #fcfcfc #000000 #000000 0 1;
#X obj 360 827 select 1 0;
#X obj 122 756 change;
#X obj 148 756 change;
#X obj 174 756 change;
#X obj 201 756 change;
#X obj 281 756 change;
#X obj 307 756 change;
#X obj 334 756 change;
#X obj 360 756 change;
#X msg 201 905 0 \, 1 15;
#X obj 203 954 pow~ 6;
#X obj 202 999 -~ 0.5;
#X obj 65 365 cnv 19 200 180 empty empty inc/dec\ counter 52 12 0 12 #c7c6ff #606060 0;
#X obj 149 442 int;
#X obj 140 465 - 1;
#X obj 140 487 spigot;
#X obj 194 487 spigot;
#X obj 194 465 + 1;
#X obj 98 415 bng 19 250 50 0 empty empty CLK 0 -10 0 12 #faff00 #ff0400 #000000;
#X obj 179 416 tgl 19 0 empty empty INC 0 -10 0 12 #fcfcfc #000000 #000000 0 1;
#X obj 179 442 != 1;
#X obj 94 505 change;
#X obj 98 465 < 0, f 2;
#X obj 98 442 spigot;
#X obj 137 416 tgl 19 0 empty empty EN 0 -10 0 12 #00ff04 #000000 #000000 0 1;
#X obj 119 465 > 4, f 2;
#X msg 224 442 0, f 2;
#X obj 224 416 bng 19 250 50 0 empty empty RST 0 -10 0 12 #00faff #00ff04 #000000;
#X obj 213 174 cnv 19 180 150 empty empty Simple\ Counter 43 12 0 12 #faff00 #404040 0;
#X obj 255 269 int;
#X obj 289 269 + 1, f 4;
#X obj 255 216 bng 19 250 50 0 empty empty CLK 0 -10 0 12 #faff00 #ff0400 #000000;
#X obj 326 296 change;
#X obj 255 296 < 0;
#X floatatom 327 270 5 0 0 2 Count - - 0;
#X obj 255 243 spigot;
#X obj 294 217 tgl 19 0 empty empty EN 0 -10 0 12 #00ff04 #000000 #000000 0 1;
#X msg 307 243 0, f 1;
#X obj 334 217 bng 19 250 50 0 empty empty RST 0 -10 0 12 #00faff #00ff04 #000000;
#X obj 79 178 bng 30 250 50 0 empty empty RESET -1 -10 0 12 #00faff #00ff04 #000000;
#X obj 140 177 tgl 30 0 empty empty Play\ /\ Stop -20 -10 0 12 #0400ff #000000 #000000 0 1;
#X obj 408 147 cnv 19 180 200 empty empty ROM 80 12 0 12 #c7c6ff #202020 0;
#X floatatom 460 189 4 0 0 1 Address - - 0;
#X obj 460 215 tabread ROM;
#X floatatom 148 511 6 0 0 1 Count - - 0;
#X obj 65 562 cnv 19 200 130 empty empty unary\ encoder 55 12 0 12 #c7c6ff #606060 0;
#X floatatom 105 595 5 0 0 1 IN - - 0;
#X obj 139 649 tgl 19 0 empty empty empty 0 -10 0 12 #fcfcfc #000000 #000000 0 1;
#X obj 105 649 tgl 19 0 empty empty empty 0 -10 0 12 #fcfcfc #000000 #000000 0 1;
#X obj 210 649 tgl 19 0 empty empty empty 0 -10 0 12 #fcfcfc #000000 #000000 0 1;
#X obj 174 649 tgl 19 0 empty empty empty 0 -10 0 12 #fcfcfc #000000 #000000 0 1;
#X obj 105 620 > 0;
#X obj 139 620 > 1;
#X obj 174 620 > 2;
#X obj 210 620 > 3;
#X obj 266 365 cnv 19 200 180 empty empty inc/dec\ counter 52 12 0 12 #c7c6ff #606060 0;
#X obj 350 442 int;
#X obj 341 465 - 1;
#X obj 341 487 spigot;
#X obj 395 487 spigot;
#X obj 395 465 + 1;
#X obj 299 415 bng 19 250 50 0 empty empty CLK 0 -10 0 12 #faff00 #ff0400 #000000;
#X obj 380 416 tgl 19 0 empty empty INC 0 -10 0 12 #fcfcfc #000000 #000000 0 1;
#X obj 380 442 != 1;
#X obj 295 505 change;
#X obj 299 465 < 0, f 2;
#X obj 299 442 spigot;
#X obj 338 416 tgl 19 0 empty empty EN 0 -10 0 12 #00ff04 #000000 #000000 0 1;
#X obj 320 465 > 4, f 2;
#X msg 425 442 0, f 2;
#X obj 425 416 bng 19 250 50 0 empty empty RST 0 -10 0 12 #00faff #00ff04 #000000;
#X floatatom 349 511 6 0 0 1 Count - - 0;
#X obj 266 562 cnv 19 200 130 empty empty unary\ encoder 55 12 0 12 #c7c6ff #606060 0;
#X floatatom 306 595 5 0 0 1 IN - - 0;
#X obj 340 649 tgl 19 0 empty empty empty 0 -10 0 12 #fcfcfc #000000 #000000 0 1;
#X obj 306 649 tgl 19 0 empty empty empty 0 -10 0 12 #fcfcfc #000000 #000000 0 1;
#X obj 411 649 tgl 19 0 empty empty empty 0 -10 0 12 #fcfcfc #000000 #000000 0 1;
#X obj 375 649 tgl 19 0 empty empty empty 0 -10 0 12 #fcfcfc #000000 #000000 0 1;
#X obj 306 620 > 0;
#X obj 340 620 > 1;
#X obj 375 620 > 2;
#X obj 411 620 > 3;
#N canvas 0 22 450 278 (subpatch) 0;
#X array ROM 127 float 3;
#A 0 0 10 2 15 3 10 2 15 3 10 2 15 3 10 2 15 3 10 2 15 3 10 2 15 3 8 12 2 3 8 12 2 3 0 0 0 0 10 2 15 3 10 2 15 3 10 2 15 3 10 2 15 3 10 2 15 3 10 2 15 3 10 15 10 15 8 2 3 15 8 2 3 12 10 2 15 3 10 2 15 3 10 2 15 3 10 2 15 3 10 2 15 3 10 2 15 3 0 0 0 0 10 15 10 15 8 0 2 0 10 2 15 3 10 2 15 3 10 2 15 3 10 2 15 3 10 2;
#X coords 0 15 127 0 800 140 1 0 0;
#X restore 530 704 graph;
#X floatatom 460 241 5 0 15 1 Data - - 0;
#X obj 460 313 tgl 19 0 empty empty empty 0 -10 0 12 #fcfcfc #000000 #000000 0 1;
#X obj 421 313 tgl 19 0 empty empty empty 0 -10 0 12 #fcfcfc #000000 #000000 0 1;
#X obj 538 313 tgl 19 0 empty empty empty 0 -10 0 12 #fcfcfc #000000 #000000 0 1;
#X obj 499 313 tgl 19 0 empty empty empty 0 -10 0 12 #fcfcfc #000000 #000000 0 1;
#X obj 538 295 mod 2;
#X obj 421 295 div 8;
#X obj 460 295 div 4;
#X obj 499 295 div 2;
#X obj 499 277 mod 4;
#X obj 460 277 mod 8;
#X obj 542 397 cnv 19 180 240 empty empty ROM\ W 70 12 0 12 #c6ffc7 #202020 0;
#X floatatom 564 568 4 0 0 1 Address - - 0;
#X floatatom 645 568 5 0 15 1 Data - - 0;
#X obj 604 591 tabwrite ROM;
#X obj 564 516 int;
#X obj 596 516 + 1, f 4;
#X obj 645 543 change;
#X obj 564 543 < 0;
#X msg 632 516 0, f 1;
#X obj 652 515 bng 19 250 50 0 empty empty RST 0 -10 0 12 #00faff #00ff04 #000000;
#X obj 689 515 bng 19 250 50 0 empty empty WRITE -8 -10 0 12 #ffffff #551312 #000000;
#X obj 611 437 tgl 19 0 empty empty empty 0 -10 0 12 #fcfcfc #000000 #000000 0 1;
#X obj 586 437 tgl 19 0 empty empty empty 0 -10 0 12 #fcfcfc #000000 #000000 0 1;
#X obj 661 437 tgl 19 0 empty empty empty 0 -10 0 12 #fcfcfc #000000 #000000 0 1;
#X obj 636 437 tgl 19 0 empty empty empty 0 -10 0 12 #fcfcfc #000000 #000000 0 1;
#X obj 661 474 +;
#X obj 661 456 * 2;
#X obj 636 474 +;
#X obj 636 456 * 2;
#X obj 611 474 +;
#X obj 611 456 * 2;
#X obj 586 474 +;
#X msg 586 456 0, f 2;
#X obj 564 591 swap;
#X obj 287 296 > 99;
#X obj 98 335 spigot;
#X obj 728 396 cnv 19 180 200 empty empty ROM 80 12 0 12 #c7c6ff #202020 0;
#X floatatom 780 438 1 0 0 1 Address - - 0;
#X obj 780 464 tabread ROM;
#X floatatom 780 490 5 0 15 1 Data - - 0;
#X obj 780 562 tgl 19 0 empty empty empty 0 -10 0 12 #fcfcfc #000000 #000000 0 1;
#X obj 741 562 tgl 19 0 empty empty empty 0 -10 0 12 #fcfcfc #000000 #000000 0 1;
#X obj 858 562 tgl 19 0 empty empty empty 0 -10 0 12 #fcfcfc #000000 #000000 0 1;
#X obj 819 562 tgl 19 0 empty empty empty 0 -10 0 12 #fcfcfc #000000 #000000 0 1;
#X obj 858 544 mod 2;
#X obj 741 544 div 8;
#X obj 780 544 div 4;
#X obj 819 544 div 2;
#X obj 819 526 mod 4;
#X obj 780 526 mod 8;
#X obj 98 270 metro 200;
#X obj 596 543 > 127;
#X obj 915 396 cnv 19 400 200 empty empty Melodie\ to\ VHDL 140 12 0 12 #c6ffc7 #404040 0;
#X obj 1118 537 text define out-text;
#X obj 1100 508 int;
#X obj 1135 508 + 1;
#X msg 1170 508 0, f 1;
#X obj 1157 455 tgl 15 0 empty empty EN 17 7 0 10 #00ff04 #000000 #000000 0 1;
#X msg 1191 454 clear;
#X listbox 969 508 18 0 0 0 - - - 0;
#X msg 969 454 ", f 1;
#X msg 1078 454 symbol ", f 9;
#X obj 969 482 pack s f f f f s;
#X obj 1036 454 t b b;
#X obj 1174 482 loadbang;
#X obj 969 537 text insert out-text;
#X obj 987 454 change;
#X obj 1091 482 metro 10, f 9;
#X obj 1232 509 change;
#X msg 1255 479 0, f 1;
#X obj 1193 508 > 127;
#X obj 21 -49 loadbang;
#X msg 21 -20 \; ROM resize 127 \; ROM bounds 0 15 127 0 \; ROM ylabel -0.3 0 1 2 3 4 5 6 7 8 9 10 11 12 13 14 15 16 \;;
#X obj 419 1201 bang;
#X connect 1 0 80 0;
#X connect 1 0 168 0;
#X connect 2 0 183 0;
#X connect 4 0 31 0;
#X connect 5 0 6 0;
#X connect 6 0 10 0;
#X connect 7 0 33 0;
#X connect 9 0 4 0;
#X connect 10 0 8 0;
#X connect 11 0 14 0;
#X connect 12 0 58 0;
#X connect 13 0 59 0;
#X connect 14 0 8 0;
#X connect 15 0 21 0;
#X connect 16 0 17 0;
#X connect 17 0 20 0;
#X connect 18 0 30 0;
#X connect 19 0 15 0;
#X connect 20 0 8 0;
#X connect 21 0 16 0;
#X connect 22 0 23 0;
#X connect 23 0 26 0;
#X connect 24 0 29 0;
#X connect 25 0 28 0;
#X connect 26 0 8 0;
#X connect 27 0 22 0;
#X connect 28 0 27 0;
#X connect 29 0 25 0;
#X connect 30 0 19 0;
#X connect 31 0 5 0;
#X connect 32 0 60 0;
#X connect 33 0 9 0;
#X connect 34 0 35 0;
#X connect 35 0 7 0;
#X connect 35 1 12 0;
#X connect 36 0 37 0;
#X connect 37 0 7 0;
#X connect 37 1 12 0;
#X connect 38 0 39 0;
#X connect 39 0 7 0;
#X connect 39 1 12 0;
#X connect 40 0 41 0;
#X connect 41 0 7 0;
#X connect 41 1 12 0;
#X connect 42 0 43 0;
#X connect 43 0 18 0;
#X connect 43 1 24 0;
#X connect 44 0 45 0;
#X connect 45 0 18 0;
#X connect 45 1 24 0;
#X connect 46 0 47 0;
#X connect 47 0 18 0;
#X connect 47 1 24 0;
#X connect 48 0 49 0;
#X connect 49 0 18 0;
#X connect 49 1 24 0;
#X connect 50 0 34 0;
#X connect 51 0 36 0;
#X connect 52 0 40 0;
#X connect 53 0 38 0;
#X connect 54 0 42 0;
#X connect 55 0 44 0;
#X connect 56 0 48 0;
#X connect 57 0 46 0;
#X connect 58 0 13 0;
#X connect 59 0 32 0;
#X connect 60 0 11 0;
#X connect 62 0 63 0;
#X connect 62 0 66 0;
#X connect 62 0 71 0;
#X connect 62 0 74 0;
#X connect 62 0 93 0;
#X connect 63 0 64 0;
#X connect 64 0 62 1;
#X connect 65 0 62 1;
#X connect 66 0 65 0;
#X connect 67 0 72 0;
#X connect 68 0 65 1;
#X connect 68 0 69 0;
#X connect 69 0 64 1;
#X connect 70 0 75 0;
#X connect 71 0 70 0;
#X connect 72 0 62 0;
#X connect 73 0 72 1;
#X connect 74 0 70 0;
#X connect 75 0 62 0;
#X connect 76 0 75 0;
#X connect 78 0 79 0;
#X connect 78 0 83 0;
#X connect 78 0 82 0;
#X connect 78 0 167 0;
#X connect 79 0 78 1;
#X connect 80 0 84 0;
#X connect 81 0 86 0;
#X connect 82 0 81 0;
#X connect 83 0 91 0;
#X connect 84 0 78 0;
#X connect 85 0 84 1;
#X connect 86 0 78 0;
#X connect 86 0 89 0;
#X connect 87 0 86 0;
#X connect 88 0 87 0;
#X connect 88 0 119 0;
#X connect 88 0 76 0;
#X connect 89 0 85 0;
#X connect 89 0 168 1;
#X connect 91 0 92 0;
#X connect 92 0 132 0;
#X connect 93 0 95 0;
#X connect 95 0 100 0;
#X connect 95 0 101 0;
#X connect 95 0 102 0;
#X connect 95 0 103 0;
#X connect 96 0 51 0;
#X connect 97 0 50 0;
#X connect 98 0 53 0;
#X connect 99 0 52 0;
#X connect 100 0 97 0;
#X connect 101 0 96 0;
#X connect 102 0 99 0;
#X connect 103 0 98 0;
#X connect 105 0 106 0;
#X connect 105 0 109 0;
#X connect 105 0 114 0;
#X connect 105 0 117 0;
#X connect 105 0 120 0;
#X connect 106 0 107 0;
#X connect 107 0 105 1;
#X connect 108 0 105 1;
#X connect 109 0 108 0;
#X connect 110 0 115 0;
#X connect 111 0 108 1;
#X connect 111 0 112 0;
#X connect 112 0 107 1;
#X connect 113 0 118 0;
#X connect 114 0 113 0;
#X connect 115 0 105 0;
#X connect 116 0 115 1;
#X connect 117 0 113 0;
#X connect 118 0 105 0;
#X connect 119 0 118 0;
#X connect 120 0 122 0;
#X connect 122 0 127 0;
#X connect 122 0 128 0;
#X connect 122 0 129 0;
#X connect 122 0 130 0;
#X connect 123 0 55 0;
#X connect 124 0 54 0;
#X connect 125 0 57 0;
#X connect 126 0 56 0;
#X connect 127 0 124 0;
#X connect 128 0 123 0;
#X connect 129 0 126 0;
#X connect 130 0 125 0;
#X connect 132 0 137 0;
#X connect 132 0 138 0;
#X connect 132 0 141 0;
#X connect 132 0 142 0;
#X connect 133 0 68 0;
#X connect 134 0 73 0;
#X connect 135 0 111 0;
#X connect 136 0 116 0;
#X connect 137 0 135 0;
#X connect 138 0 134 0;
#X connect 139 0 133 0;
#X connect 140 0 136 0;
#X connect 141 0 140 0;
#X connect 142 0 139 0;
#X connect 144 0 166 0;
#X connect 145 0 166 1;
#X connect 147 0 148 0;
#X connect 147 0 150 0;
#X connect 147 0 144 0;
#X connect 147 0 184 0;
#X connect 148 0 147 1;
#X connect 149 0 151 0;
#X connect 150 0 149 0;
#X connect 151 0 147 0;
#X connect 152 0 151 0;
#X connect 153 0 147 0;
#X connect 154 0 162 1;
#X connect 154 0 165 0;
#X connect 155 0 164 1;
#X connect 155 0 165 0;
#X connect 156 0 158 1;
#X connect 156 0 165 0;
#X connect 157 0 160 1;
#X connect 157 0 165 0;
#X connect 158 0 145 0;
#X connect 159 0 158 0;
#X connect 160 0 159 0;
#X connect 161 0 160 0;
#X connect 162 0 161 0;
#X connect 163 0 162 0;
#X connect 164 0 163 0;
#X connect 165 0 164 0;
#X connect 166 0 146 0;
#X connect 166 1 146 1;
#X connect 167 0 81 0;
#X connect 168 0 67 0;
#X connect 168 0 110 0;
#X connect 170 0 171 0;
#X connect 171 0 172 0;
#X connect 172 0 177 0;
#X connect 172 0 178 0;
#X connect 172 0 181 0;
#X connect 172 0 182 0;
#X connect 173 0 195 2;
#X connect 174 0 195 1;
#X connect 175 0 195 4;
#X connect 176 0 195 3;
#X connect 177 0 175 0;
#X connect 178 0 174 0;
#X connect 179 0 173 0;
#X connect 180 0 176 0;
#X connect 181 0 180 0;
#X connect 182 0 179 0;
#X connect 183 0 1 0;
#X connect 184 0 149 0;
#X connect 187 0 188 0;
#X connect 187 0 199 0;
#X connect 187 0 203 0;
#X connect 187 0 170 0;
#X connect 188 0 187 1;
#X connect 189 0 187 0;
#X connect 190 0 200 0;
#X connect 191 0 186 0;
#X connect 191 0 189 0;
#X connect 192 0 198 0;
#X connect 193 0 195 0;
#X connect 194 0 195 5;
#X connect 195 0 192 0;
#X connect 196 0 193 0;
#X connect 196 1 194 0;
#X connect 197 0 186 0;
#X connect 199 0 196 0;
#X connect 200 0 187 0;
#X connect 201 0 202 0;
#X connect 202 0 190 0;
#X connect 203 0 201 0;
#X connect 204 0 205 0;
